<mxfile host="Electron" modified="2023-10-31T16:38:34.074Z" agent="Mozilla/5.0 (Windows NT 10.0; Win64; x64) AppleWebKit/537.36 (KHTML, like Gecko) draw.io/21.4.0 Chrome/112.0.5615.204 Electron/24.5.1 Safari/537.36" etag="AhIQL5ClH2Jnak_8IoiB" version="21.4.0" type="device">
  <diagram id="C5RBs43oDa-KdzZeNtuy" name="Page-1">
    <mxGraphModel dx="882" dy="619" grid="1" gridSize="10" guides="1" tooltips="1" connect="1" arrows="1" fold="1" page="0" pageScale="1" pageWidth="827" pageHeight="1169" math="0" shadow="0">
      <root>
        <mxCell id="WIyWlLk6GJQsqaUBKTNV-0" />
        <mxCell id="WIyWlLk6GJQsqaUBKTNV-1" parent="WIyWlLk6GJQsqaUBKTNV-0" />
        <mxCell id="kXoJSJUCj_QecCvAlT2l-2" value="" style="edgeStyle=orthogonalEdgeStyle;rounded=0;orthogonalLoop=1;jettySize=auto;html=1;" edge="1" parent="WIyWlLk6GJQsqaUBKTNV-1" source="kXoJSJUCj_QecCvAlT2l-0" target="kXoJSJUCj_QecCvAlT2l-1">
          <mxGeometry relative="1" as="geometry" />
        </mxCell>
        <mxCell id="kXoJSJUCj_QecCvAlT2l-0" value="program start" style="ellipse;whiteSpace=wrap;html=1;" vertex="1" parent="WIyWlLk6GJQsqaUBKTNV-1">
          <mxGeometry x="190" y="60" width="90" height="50" as="geometry" />
        </mxCell>
        <mxCell id="kXoJSJUCj_QecCvAlT2l-4" value="" style="edgeStyle=orthogonalEdgeStyle;rounded=0;orthogonalLoop=1;jettySize=auto;html=1;entryX=0.5;entryY=0;entryDx=0;entryDy=0;entryPerimeter=0;" edge="1" parent="WIyWlLk6GJQsqaUBKTNV-1" source="kXoJSJUCj_QecCvAlT2l-1" target="kXoJSJUCj_QecCvAlT2l-34">
          <mxGeometry relative="1" as="geometry">
            <mxPoint x="235.04761904761892" y="210" as="targetPoint" />
          </mxGeometry>
        </mxCell>
        <mxCell id="kXoJSJUCj_QecCvAlT2l-1" value="generate new room" style="rounded=0;whiteSpace=wrap;html=1;" vertex="1" parent="WIyWlLk6GJQsqaUBKTNV-1">
          <mxGeometry x="175" y="145" width="120" height="30" as="geometry" />
        </mxCell>
        <mxCell id="kXoJSJUCj_QecCvAlT2l-6" value="" style="edgeStyle=orthogonalEdgeStyle;rounded=0;orthogonalLoop=1;jettySize=auto;html=1;exitX=0.5;exitY=1;exitDx=0;exitDy=0;exitPerimeter=0;" edge="1" parent="WIyWlLk6GJQsqaUBKTNV-1" source="kXoJSJUCj_QecCvAlT2l-34" target="kXoJSJUCj_QecCvAlT2l-5">
          <mxGeometry relative="1" as="geometry">
            <mxPoint x="235.04761904761892" y="245" as="sourcePoint" />
          </mxGeometry>
        </mxCell>
        <mxCell id="kXoJSJUCj_QecCvAlT2l-12" value="yes" style="edgeStyle=orthogonalEdgeStyle;rounded=0;orthogonalLoop=1;jettySize=auto;html=1;" edge="1" parent="WIyWlLk6GJQsqaUBKTNV-1" source="kXoJSJUCj_QecCvAlT2l-5" target="kXoJSJUCj_QecCvAlT2l-11">
          <mxGeometry relative="1" as="geometry" />
        </mxCell>
        <mxCell id="kXoJSJUCj_QecCvAlT2l-14" value="no" style="edgeStyle=orthogonalEdgeStyle;rounded=0;orthogonalLoop=1;jettySize=auto;html=1;" edge="1" parent="WIyWlLk6GJQsqaUBKTNV-1" source="kXoJSJUCj_QecCvAlT2l-5" target="kXoJSJUCj_QecCvAlT2l-13">
          <mxGeometry relative="1" as="geometry" />
        </mxCell>
        <mxCell id="kXoJSJUCj_QecCvAlT2l-5" value="did the player try to move?" style="rhombus;whiteSpace=wrap;html=1;" vertex="1" parent="WIyWlLk6GJQsqaUBKTNV-1">
          <mxGeometry x="192.5" y="275" width="85" height="80" as="geometry" />
        </mxCell>
        <mxCell id="kXoJSJUCj_QecCvAlT2l-121" style="edgeStyle=orthogonalEdgeStyle;rounded=0;orthogonalLoop=1;jettySize=auto;html=1;exitX=1;exitY=0.5;exitDx=0;exitDy=0;entryX=0;entryY=0.5;entryDx=0;entryDy=0;" edge="1" parent="WIyWlLk6GJQsqaUBKTNV-1" source="kXoJSJUCj_QecCvAlT2l-11" target="kXoJSJUCj_QecCvAlT2l-120">
          <mxGeometry relative="1" as="geometry" />
        </mxCell>
        <mxCell id="kXoJSJUCj_QecCvAlT2l-11" value="move the player position in the specified direction" style="whiteSpace=wrap;html=1;" vertex="1" parent="WIyWlLk6GJQsqaUBKTNV-1">
          <mxGeometry x="340" y="291.25" width="120" height="47.5" as="geometry" />
        </mxCell>
        <mxCell id="kXoJSJUCj_QecCvAlT2l-16" value="yes" style="edgeStyle=orthogonalEdgeStyle;rounded=0;orthogonalLoop=1;jettySize=auto;html=1;" edge="1" parent="WIyWlLk6GJQsqaUBKTNV-1" source="kXoJSJUCj_QecCvAlT2l-13" target="kXoJSJUCj_QecCvAlT2l-15">
          <mxGeometry x="-0.2035" relative="1" as="geometry">
            <mxPoint as="offset" />
          </mxGeometry>
        </mxCell>
        <mxCell id="kXoJSJUCj_QecCvAlT2l-18" value="no" style="edgeStyle=orthogonalEdgeStyle;rounded=0;orthogonalLoop=1;jettySize=auto;html=1;" edge="1" parent="WIyWlLk6GJQsqaUBKTNV-1" source="kXoJSJUCj_QecCvAlT2l-13" target="kXoJSJUCj_QecCvAlT2l-17">
          <mxGeometry relative="1" as="geometry" />
        </mxCell>
        <mxCell id="kXoJSJUCj_QecCvAlT2l-13" value="did the player try to attack?" style="rhombus;whiteSpace=wrap;html=1;" vertex="1" parent="WIyWlLk6GJQsqaUBKTNV-1">
          <mxGeometry x="192.5" y="390" width="85" height="80" as="geometry" />
        </mxCell>
        <mxCell id="kXoJSJUCj_QecCvAlT2l-131" value="" style="edgeStyle=orthogonalEdgeStyle;rounded=0;orthogonalLoop=1;jettySize=auto;html=1;" edge="1" parent="WIyWlLk6GJQsqaUBKTNV-1" source="kXoJSJUCj_QecCvAlT2l-15" target="kXoJSJUCj_QecCvAlT2l-130">
          <mxGeometry relative="1" as="geometry" />
        </mxCell>
        <mxCell id="kXoJSJUCj_QecCvAlT2l-15" value="remove goop in the current facing direction" style="whiteSpace=wrap;html=1;" vertex="1" parent="WIyWlLk6GJQsqaUBKTNV-1">
          <mxGeometry x="334" y="400" width="120" height="60" as="geometry" />
        </mxCell>
        <mxCell id="kXoJSJUCj_QecCvAlT2l-20" value="yes" style="edgeStyle=orthogonalEdgeStyle;rounded=0;orthogonalLoop=1;jettySize=auto;html=1;" edge="1" parent="WIyWlLk6GJQsqaUBKTNV-1" source="kXoJSJUCj_QecCvAlT2l-17" target="kXoJSJUCj_QecCvAlT2l-19">
          <mxGeometry relative="1" as="geometry" />
        </mxCell>
        <mxCell id="kXoJSJUCj_QecCvAlT2l-26" value="no" style="edgeStyle=orthogonalEdgeStyle;rounded=0;orthogonalLoop=1;jettySize=auto;html=1;" edge="1" parent="WIyWlLk6GJQsqaUBKTNV-1" source="kXoJSJUCj_QecCvAlT2l-17" target="kXoJSJUCj_QecCvAlT2l-25">
          <mxGeometry relative="1" as="geometry" />
        </mxCell>
        <mxCell id="kXoJSJUCj_QecCvAlT2l-17" value="did the player try to place a bomb?" style="rhombus;whiteSpace=wrap;html=1;" vertex="1" parent="WIyWlLk6GJQsqaUBKTNV-1">
          <mxGeometry x="195" y="560" width="80" height="80" as="geometry" />
        </mxCell>
        <mxCell id="kXoJSJUCj_QecCvAlT2l-22" value="yes" style="edgeStyle=orthogonalEdgeStyle;rounded=0;orthogonalLoop=1;jettySize=auto;html=1;" edge="1" parent="WIyWlLk6GJQsqaUBKTNV-1" source="kXoJSJUCj_QecCvAlT2l-19" target="kXoJSJUCj_QecCvAlT2l-21">
          <mxGeometry relative="1" as="geometry" />
        </mxCell>
        <mxCell id="kXoJSJUCj_QecCvAlT2l-19" value="does the player have a bomb?" style="rhombus;whiteSpace=wrap;html=1;" vertex="1" parent="WIyWlLk6GJQsqaUBKTNV-1">
          <mxGeometry x="334" y="560" width="80" height="80" as="geometry" />
        </mxCell>
        <mxCell id="kXoJSJUCj_QecCvAlT2l-29" style="edgeStyle=orthogonalEdgeStyle;rounded=0;orthogonalLoop=1;jettySize=auto;html=1;" edge="1" parent="WIyWlLk6GJQsqaUBKTNV-1" source="kXoJSJUCj_QecCvAlT2l-21">
          <mxGeometry relative="1" as="geometry">
            <mxPoint x="790" y="600" as="targetPoint" />
          </mxGeometry>
        </mxCell>
        <mxCell id="kXoJSJUCj_QecCvAlT2l-61" style="edgeStyle=orthogonalEdgeStyle;rounded=0;orthogonalLoop=1;jettySize=auto;html=1;entryX=0.5;entryY=0;entryDx=0;entryDy=0;entryPerimeter=0;dashed=1;" edge="1" parent="WIyWlLk6GJQsqaUBKTNV-1" source="kXoJSJUCj_QecCvAlT2l-21" target="kXoJSJUCj_QecCvAlT2l-60">
          <mxGeometry relative="1" as="geometry">
            <Array as="points">
              <mxPoint x="520" y="670" />
              <mxPoint x="670" y="670" />
            </Array>
          </mxGeometry>
        </mxCell>
        <mxCell id="kXoJSJUCj_QecCvAlT2l-21" value="add a new bomb entity to the list, timer 3 turns" style="whiteSpace=wrap;html=1;" vertex="1" parent="WIyWlLk6GJQsqaUBKTNV-1">
          <mxGeometry x="460" y="570" width="120" height="60" as="geometry" />
        </mxCell>
        <mxCell id="kXoJSJUCj_QecCvAlT2l-31" value="yes" style="edgeStyle=orthogonalEdgeStyle;rounded=0;orthogonalLoop=1;jettySize=auto;html=1;entryX=0;entryY=0.5;entryDx=0;entryDy=0;" edge="1" parent="WIyWlLk6GJQsqaUBKTNV-1" source="kXoJSJUCj_QecCvAlT2l-25" target="kXoJSJUCj_QecCvAlT2l-160">
          <mxGeometry relative="1" as="geometry" />
        </mxCell>
        <mxCell id="kXoJSJUCj_QecCvAlT2l-158" value="no" style="edgeStyle=orthogonalEdgeStyle;rounded=0;orthogonalLoop=1;jettySize=auto;html=1;" edge="1" parent="WIyWlLk6GJQsqaUBKTNV-1" source="kXoJSJUCj_QecCvAlT2l-25" target="kXoJSJUCj_QecCvAlT2l-155">
          <mxGeometry relative="1" as="geometry" />
        </mxCell>
        <mxCell id="kXoJSJUCj_QecCvAlT2l-25" value="is the player &lt;br&gt;intersecting with a goop tile?" style="rhombus;whiteSpace=wrap;html=1;" vertex="1" parent="WIyWlLk6GJQsqaUBKTNV-1">
          <mxGeometry x="160" y="720" width="150" height="80" as="geometry" />
        </mxCell>
        <mxCell id="kXoJSJUCj_QecCvAlT2l-33" value="" style="edgeStyle=orthogonalEdgeStyle;rounded=0;orthogonalLoop=1;jettySize=auto;html=1;" edge="1" parent="WIyWlLk6GJQsqaUBKTNV-1" source="kXoJSJUCj_QecCvAlT2l-30" target="kXoJSJUCj_QecCvAlT2l-32">
          <mxGeometry relative="1" as="geometry" />
        </mxCell>
        <mxCell id="kXoJSJUCj_QecCvAlT2l-30" value="reduce the player&#39;s health by 1" style="whiteSpace=wrap;html=1;" vertex="1" parent="WIyWlLk6GJQsqaUBKTNV-1">
          <mxGeometry x="530" y="730" width="120" height="60" as="geometry" />
        </mxCell>
        <mxCell id="kXoJSJUCj_QecCvAlT2l-163" style="edgeStyle=orthogonalEdgeStyle;rounded=0;orthogonalLoop=1;jettySize=auto;html=1;entryX=1;entryY=0;entryDx=0;entryDy=0;" edge="1" parent="WIyWlLk6GJQsqaUBKTNV-1" source="kXoJSJUCj_QecCvAlT2l-32" target="kXoJSJUCj_QecCvAlT2l-155">
          <mxGeometry relative="1" as="geometry">
            <Array as="points">
              <mxPoint x="273" y="850" />
            </Array>
          </mxGeometry>
        </mxCell>
        <mxCell id="kXoJSJUCj_QecCvAlT2l-32" value="set the player&#39;s invincibility timer to 5 turns" style="whiteSpace=wrap;html=1;" vertex="1" parent="WIyWlLk6GJQsqaUBKTNV-1">
          <mxGeometry x="530" y="810" width="120" height="60" as="geometry" />
        </mxCell>
        <mxCell id="kXoJSJUCj_QecCvAlT2l-34" value="wait for user input" style="strokeWidth=2;html=1;shape=mxgraph.flowchart.delay;whiteSpace=wrap;" vertex="1" parent="WIyWlLk6GJQsqaUBKTNV-1">
          <mxGeometry x="180" y="220" width="110" height="37" as="geometry" />
        </mxCell>
        <mxCell id="kXoJSJUCj_QecCvAlT2l-39" value="" style="edgeStyle=orthogonalEdgeStyle;rounded=0;orthogonalLoop=1;jettySize=auto;html=1;" edge="1" parent="WIyWlLk6GJQsqaUBKTNV-1" source="kXoJSJUCj_QecCvAlT2l-35" target="kXoJSJUCj_QecCvAlT2l-38">
          <mxGeometry relative="1" as="geometry" />
        </mxCell>
        <mxCell id="kXoJSJUCj_QecCvAlT2l-35" value="set tile_pointer to 0" style="whiteSpace=wrap;html=1;" vertex="1" parent="WIyWlLk6GJQsqaUBKTNV-1">
          <mxGeometry x="175" y="1190" width="120" height="30" as="geometry" />
        </mxCell>
        <mxCell id="kXoJSJUCj_QecCvAlT2l-37" style="edgeStyle=orthogonalEdgeStyle;rounded=0;orthogonalLoop=1;jettySize=auto;html=1;exitX=0.5;exitY=1;exitDx=0;exitDy=0;" edge="1" parent="WIyWlLk6GJQsqaUBKTNV-1" source="kXoJSJUCj_QecCvAlT2l-35" target="kXoJSJUCj_QecCvAlT2l-35">
          <mxGeometry relative="1" as="geometry" />
        </mxCell>
        <mxCell id="kXoJSJUCj_QecCvAlT2l-41" value="yes" style="edgeStyle=orthogonalEdgeStyle;rounded=0;orthogonalLoop=1;jettySize=auto;html=1;" edge="1" parent="WIyWlLk6GJQsqaUBKTNV-1" source="kXoJSJUCj_QecCvAlT2l-38" target="kXoJSJUCj_QecCvAlT2l-40">
          <mxGeometry relative="1" as="geometry" />
        </mxCell>
        <mxCell id="kXoJSJUCj_QecCvAlT2l-43" value="no" style="edgeStyle=orthogonalEdgeStyle;rounded=0;orthogonalLoop=1;jettySize=auto;html=1;" edge="1" parent="WIyWlLk6GJQsqaUBKTNV-1" source="kXoJSJUCj_QecCvAlT2l-38" target="kXoJSJUCj_QecCvAlT2l-42">
          <mxGeometry relative="1" as="geometry" />
        </mxCell>
        <mxCell id="kXoJSJUCj_QecCvAlT2l-38" value="is the tile at tile_pointer a goop tile?" style="strokeWidth=2;html=1;shape=mxgraph.flowchart.decision;whiteSpace=wrap;" vertex="1" parent="WIyWlLk6GJQsqaUBKTNV-1">
          <mxGeometry x="185" y="1240" width="100" height="100" as="geometry" />
        </mxCell>
        <mxCell id="kXoJSJUCj_QecCvAlT2l-44" value="fail" style="edgeStyle=orthogonalEdgeStyle;rounded=0;orthogonalLoop=1;jettySize=auto;html=1;entryX=1;entryY=0.25;entryDx=0;entryDy=0;exitX=0.5;exitY=1;exitDx=0;exitDy=0;exitPerimeter=0;" edge="1" parent="WIyWlLk6GJQsqaUBKTNV-1" source="kXoJSJUCj_QecCvAlT2l-40" target="kXoJSJUCj_QecCvAlT2l-42">
          <mxGeometry x="-0.5714" relative="1" as="geometry">
            <Array as="points">
              <mxPoint x="384" y="1388" />
              <mxPoint x="295" y="1388" />
            </Array>
            <mxPoint as="offset" />
          </mxGeometry>
        </mxCell>
        <mxCell id="kXoJSJUCj_QecCvAlT2l-46" value="success" style="edgeStyle=orthogonalEdgeStyle;rounded=0;orthogonalLoop=1;jettySize=auto;html=1;" edge="1" parent="WIyWlLk6GJQsqaUBKTNV-1" source="kXoJSJUCj_QecCvAlT2l-40" target="kXoJSJUCj_QecCvAlT2l-45">
          <mxGeometry relative="1" as="geometry" />
        </mxCell>
        <mxCell id="kXoJSJUCj_QecCvAlT2l-40" value="random &lt;br&gt;chance&lt;br&gt;1 in 100?" style="strokeWidth=2;html=1;shape=mxgraph.flowchart.decision;whiteSpace=wrap;" vertex="1" parent="WIyWlLk6GJQsqaUBKTNV-1">
          <mxGeometry x="335" y="1240" width="100" height="100" as="geometry" />
        </mxCell>
        <mxCell id="kXoJSJUCj_QecCvAlT2l-49" value="" style="edgeStyle=orthogonalEdgeStyle;rounded=0;orthogonalLoop=1;jettySize=auto;html=1;" edge="1" parent="WIyWlLk6GJQsqaUBKTNV-1" source="kXoJSJUCj_QecCvAlT2l-42" target="kXoJSJUCj_QecCvAlT2l-48">
          <mxGeometry relative="1" as="geometry" />
        </mxCell>
        <mxCell id="kXoJSJUCj_QecCvAlT2l-42" value="increment tile_pointer" style="whiteSpace=wrap;html=1;strokeWidth=2;" vertex="1" parent="WIyWlLk6GJQsqaUBKTNV-1">
          <mxGeometry x="175" y="1380" width="120" height="30" as="geometry" />
        </mxCell>
        <mxCell id="kXoJSJUCj_QecCvAlT2l-47" style="edgeStyle=orthogonalEdgeStyle;rounded=0;orthogonalLoop=1;jettySize=auto;html=1;entryX=1;entryY=0.75;entryDx=0;entryDy=0;" edge="1" parent="WIyWlLk6GJQsqaUBKTNV-1" source="kXoJSJUCj_QecCvAlT2l-45" target="kXoJSJUCj_QecCvAlT2l-42">
          <mxGeometry relative="1" as="geometry">
            <Array as="points">
              <mxPoint x="570" y="1403" />
              <mxPoint x="295" y="1403" />
            </Array>
          </mxGeometry>
        </mxCell>
        <mxCell id="kXoJSJUCj_QecCvAlT2l-45" value="set an adjacent tile to be goop as well" style="whiteSpace=wrap;html=1;strokeWidth=2;" vertex="1" parent="WIyWlLk6GJQsqaUBKTNV-1">
          <mxGeometry x="510" y="1260" width="120" height="60" as="geometry" />
        </mxCell>
        <mxCell id="kXoJSJUCj_QecCvAlT2l-50" value="no" style="edgeStyle=orthogonalEdgeStyle;rounded=0;orthogonalLoop=1;jettySize=auto;html=1;entryX=0;entryY=0.5;entryDx=0;entryDy=0;entryPerimeter=0;" edge="1" parent="WIyWlLk6GJQsqaUBKTNV-1" source="kXoJSJUCj_QecCvAlT2l-48" target="kXoJSJUCj_QecCvAlT2l-38">
          <mxGeometry relative="1" as="geometry">
            <Array as="points">
              <mxPoint x="140" y="1450" />
              <mxPoint x="140" y="1290" />
            </Array>
          </mxGeometry>
        </mxCell>
        <mxCell id="kXoJSJUCj_QecCvAlT2l-57" value="yes" style="edgeStyle=orthogonalEdgeStyle;rounded=0;orthogonalLoop=1;jettySize=auto;html=1;" edge="1" parent="WIyWlLk6GJQsqaUBKTNV-1" source="kXoJSJUCj_QecCvAlT2l-48" target="kXoJSJUCj_QecCvAlT2l-56">
          <mxGeometry relative="1" as="geometry" />
        </mxCell>
        <mxCell id="kXoJSJUCj_QecCvAlT2l-48" value="is tile_pointer&lt;br&gt;greater than or equal to number of tiles?" style="rhombus;whiteSpace=wrap;html=1;strokeWidth=2;" vertex="1" parent="WIyWlLk6GJQsqaUBKTNV-1">
          <mxGeometry x="162.5" y="1430" width="145" height="80" as="geometry" />
        </mxCell>
        <mxCell id="kXoJSJUCj_QecCvAlT2l-68" value="" style="edgeStyle=orthogonalEdgeStyle;rounded=0;orthogonalLoop=1;jettySize=auto;html=1;" edge="1" parent="WIyWlLk6GJQsqaUBKTNV-1" source="kXoJSJUCj_QecCvAlT2l-56" target="kXoJSJUCj_QecCvAlT2l-67">
          <mxGeometry relative="1" as="geometry" />
        </mxCell>
        <mxCell id="kXoJSJUCj_QecCvAlT2l-56" value="set bomb_pointer to 0" style="whiteSpace=wrap;html=1;strokeWidth=2;" vertex="1" parent="WIyWlLk6GJQsqaUBKTNV-1">
          <mxGeometry x="175" y="1550" width="120" height="60" as="geometry" />
        </mxCell>
        <mxCell id="kXoJSJUCj_QecCvAlT2l-69" style="edgeStyle=orthogonalEdgeStyle;rounded=0;orthogonalLoop=1;jettySize=auto;html=1;entryX=1;entryY=0.5;entryDx=0;entryDy=0;dashed=1;" edge="1" parent="WIyWlLk6GJQsqaUBKTNV-1" source="kXoJSJUCj_QecCvAlT2l-60" target="kXoJSJUCj_QecCvAlT2l-67">
          <mxGeometry relative="1" as="geometry">
            <Array as="points">
              <mxPoint x="468" y="1430" />
              <mxPoint x="468" y="1660" />
            </Array>
          </mxGeometry>
        </mxCell>
        <mxCell id="kXoJSJUCj_QecCvAlT2l-82" style="edgeStyle=orthogonalEdgeStyle;rounded=0;orthogonalLoop=1;jettySize=auto;html=1;exitX=0.5;exitY=1;exitDx=0;exitDy=0;exitPerimeter=0;entryX=1;entryY=0.5;entryDx=0;entryDy=0;dashed=1;" edge="1" parent="WIyWlLk6GJQsqaUBKTNV-1" source="kXoJSJUCj_QecCvAlT2l-60" target="kXoJSJUCj_QecCvAlT2l-80">
          <mxGeometry relative="1" as="geometry" />
        </mxCell>
        <mxCell id="kXoJSJUCj_QecCvAlT2l-60" value="list of bombs" style="shape=cylinder3;whiteSpace=wrap;html=1;boundedLbl=1;backgroundOutline=1;size=15;" vertex="1" parent="WIyWlLk6GJQsqaUBKTNV-1">
          <mxGeometry x="640" y="1370" width="60" height="80" as="geometry" />
        </mxCell>
        <mxCell id="kXoJSJUCj_QecCvAlT2l-62" value="Bomb" style="swimlane;fontStyle=0;childLayout=stackLayout;horizontal=1;startSize=30;horizontalStack=0;resizeParent=1;resizeParentMax=0;resizeLast=0;collapsible=1;marginBottom=0;whiteSpace=wrap;html=1;" vertex="1" parent="WIyWlLk6GJQsqaUBKTNV-1">
          <mxGeometry x="740" y="1365" width="140" height="90" as="geometry" />
        </mxCell>
        <mxCell id="kXoJSJUCj_QecCvAlT2l-63" value="Tile Position" style="text;strokeColor=none;fillColor=none;align=left;verticalAlign=middle;spacingLeft=4;spacingRight=4;overflow=hidden;points=[[0,0.5],[1,0.5]];portConstraint=eastwest;rotatable=0;whiteSpace=wrap;html=1;" vertex="1" parent="kXoJSJUCj_QecCvAlT2l-62">
          <mxGeometry y="30" width="140" height="30" as="geometry" />
        </mxCell>
        <mxCell id="kXoJSJUCj_QecCvAlT2l-64" value="Timer" style="text;strokeColor=none;fillColor=none;align=left;verticalAlign=middle;spacingLeft=4;spacingRight=4;overflow=hidden;points=[[0,0.5],[1,0.5]];portConstraint=eastwest;rotatable=0;whiteSpace=wrap;html=1;" vertex="1" parent="kXoJSJUCj_QecCvAlT2l-62">
          <mxGeometry y="60" width="140" height="30" as="geometry" />
        </mxCell>
        <mxCell id="kXoJSJUCj_QecCvAlT2l-66" style="edgeStyle=orthogonalEdgeStyle;rounded=0;orthogonalLoop=1;jettySize=auto;html=1;entryX=1;entryY=0.5;entryDx=0;entryDy=0;entryPerimeter=0;dashed=1;" edge="1" parent="WIyWlLk6GJQsqaUBKTNV-1" source="kXoJSJUCj_QecCvAlT2l-63" target="kXoJSJUCj_QecCvAlT2l-60">
          <mxGeometry relative="1" as="geometry" />
        </mxCell>
        <mxCell id="kXoJSJUCj_QecCvAlT2l-71" value="" style="edgeStyle=orthogonalEdgeStyle;rounded=0;orthogonalLoop=1;jettySize=auto;html=1;" edge="1" parent="WIyWlLk6GJQsqaUBKTNV-1" source="kXoJSJUCj_QecCvAlT2l-67" target="kXoJSJUCj_QecCvAlT2l-70">
          <mxGeometry relative="1" as="geometry" />
        </mxCell>
        <mxCell id="kXoJSJUCj_QecCvAlT2l-67" value="decrement bomb timer at bomb_pointer" style="whiteSpace=wrap;html=1;strokeWidth=2;" vertex="1" parent="WIyWlLk6GJQsqaUBKTNV-1">
          <mxGeometry x="175" y="1630" width="120" height="60" as="geometry" />
        </mxCell>
        <mxCell id="kXoJSJUCj_QecCvAlT2l-74" value="yes" style="edgeStyle=orthogonalEdgeStyle;rounded=0;orthogonalLoop=1;jettySize=auto;html=1;" edge="1" parent="WIyWlLk6GJQsqaUBKTNV-1" source="kXoJSJUCj_QecCvAlT2l-70" target="kXoJSJUCj_QecCvAlT2l-73">
          <mxGeometry relative="1" as="geometry" />
        </mxCell>
        <mxCell id="kXoJSJUCj_QecCvAlT2l-86" value="no" style="edgeStyle=orthogonalEdgeStyle;rounded=0;orthogonalLoop=1;jettySize=auto;html=1;" edge="1" parent="WIyWlLk6GJQsqaUBKTNV-1" source="kXoJSJUCj_QecCvAlT2l-70" target="kXoJSJUCj_QecCvAlT2l-85">
          <mxGeometry relative="1" as="geometry" />
        </mxCell>
        <mxCell id="kXoJSJUCj_QecCvAlT2l-70" value="is this &lt;br&gt;bomb&#39;s timer zero?" style="rhombus;whiteSpace=wrap;html=1;strokeWidth=2;" vertex="1" parent="WIyWlLk6GJQsqaUBKTNV-1">
          <mxGeometry x="195" y="1710" width="80" height="80" as="geometry" />
        </mxCell>
        <mxCell id="kXoJSJUCj_QecCvAlT2l-79" value="" style="edgeStyle=orthogonalEdgeStyle;rounded=0;orthogonalLoop=1;jettySize=auto;html=1;" edge="1" parent="WIyWlLk6GJQsqaUBKTNV-1" source="kXoJSJUCj_QecCvAlT2l-73" target="kXoJSJUCj_QecCvAlT2l-78">
          <mxGeometry relative="1" as="geometry" />
        </mxCell>
        <mxCell id="kXoJSJUCj_QecCvAlT2l-73" value="set the surrounding radius tiles to explosions" style="whiteSpace=wrap;html=1;strokeWidth=2;" vertex="1" parent="WIyWlLk6GJQsqaUBKTNV-1">
          <mxGeometry x="335" y="1720" width="120" height="60" as="geometry" />
        </mxCell>
        <mxCell id="kXoJSJUCj_QecCvAlT2l-81" value="" style="edgeStyle=orthogonalEdgeStyle;rounded=0;orthogonalLoop=1;jettySize=auto;html=1;" edge="1" parent="WIyWlLk6GJQsqaUBKTNV-1" source="kXoJSJUCj_QecCvAlT2l-75" target="kXoJSJUCj_QecCvAlT2l-80">
          <mxGeometry relative="1" as="geometry" />
        </mxCell>
        <mxCell id="kXoJSJUCj_QecCvAlT2l-75" value="increment bomb_pointer" style="whiteSpace=wrap;html=1;strokeWidth=2;" vertex="1" parent="WIyWlLk6GJQsqaUBKTNV-1">
          <mxGeometry x="192.5" y="1920" width="85" height="40" as="geometry" />
        </mxCell>
        <mxCell id="kXoJSJUCj_QecCvAlT2l-148" value="" style="edgeStyle=orthogonalEdgeStyle;rounded=0;orthogonalLoop=1;jettySize=auto;html=1;" edge="1" parent="WIyWlLk6GJQsqaUBKTNV-1" source="kXoJSJUCj_QecCvAlT2l-78" target="kXoJSJUCj_QecCvAlT2l-144">
          <mxGeometry relative="1" as="geometry" />
        </mxCell>
        <mxCell id="kXoJSJUCj_QecCvAlT2l-78" value="remove bomb from the list of bombs" style="whiteSpace=wrap;html=1;strokeWidth=2;" vertex="1" parent="WIyWlLk6GJQsqaUBKTNV-1">
          <mxGeometry x="490" y="1720" width="120" height="60" as="geometry" />
        </mxCell>
        <mxCell id="kXoJSJUCj_QecCvAlT2l-90" value="no" style="edgeStyle=orthogonalEdgeStyle;rounded=0;orthogonalLoop=1;jettySize=auto;html=1;entryX=0;entryY=0.25;entryDx=0;entryDy=0;exitX=0;exitY=0.5;exitDx=0;exitDy=0;" edge="1" parent="WIyWlLk6GJQsqaUBKTNV-1" source="kXoJSJUCj_QecCvAlT2l-80" target="kXoJSJUCj_QecCvAlT2l-67">
          <mxGeometry x="-0.9267" relative="1" as="geometry">
            <Array as="points">
              <mxPoint x="120" y="2020" />
              <mxPoint x="120" y="1645" />
            </Array>
            <mxPoint as="offset" />
          </mxGeometry>
        </mxCell>
        <mxCell id="kXoJSJUCj_QecCvAlT2l-98" value="yes" style="edgeStyle=orthogonalEdgeStyle;rounded=0;orthogonalLoop=1;jettySize=auto;html=1;" edge="1" parent="WIyWlLk6GJQsqaUBKTNV-1" source="kXoJSJUCj_QecCvAlT2l-80" target="kXoJSJUCj_QecCvAlT2l-97">
          <mxGeometry relative="1" as="geometry" />
        </mxCell>
        <mxCell id="kXoJSJUCj_QecCvAlT2l-80" value="is bomb_pointer &lt;br&gt;greater than or equal to length of bombs?" style="rhombus;whiteSpace=wrap;html=1;strokeWidth=2;" vertex="1" parent="WIyWlLk6GJQsqaUBKTNV-1">
          <mxGeometry x="157.5" y="1980" width="155" height="80" as="geometry" />
        </mxCell>
        <mxCell id="kXoJSJUCj_QecCvAlT2l-88" style="edgeStyle=orthogonalEdgeStyle;rounded=0;orthogonalLoop=1;jettySize=auto;html=1;entryX=0.5;entryY=0;entryDx=0;entryDy=0;" edge="1" parent="WIyWlLk6GJQsqaUBKTNV-1" source="kXoJSJUCj_QecCvAlT2l-85" target="kXoJSJUCj_QecCvAlT2l-75">
          <mxGeometry relative="1" as="geometry" />
        </mxCell>
        <mxCell id="kXoJSJUCj_QecCvAlT2l-85" value="set the tile under the bomb to be the timer value" style="rounded=0;whiteSpace=wrap;html=1;" vertex="1" parent="WIyWlLk6GJQsqaUBKTNV-1">
          <mxGeometry x="175" y="1830" width="120" height="60" as="geometry" />
        </mxCell>
        <mxCell id="kXoJSJUCj_QecCvAlT2l-95" value="" style="edgeStyle=orthogonalEdgeStyle;rounded=0;orthogonalLoop=1;jettySize=auto;html=1;" edge="1" parent="WIyWlLk6GJQsqaUBKTNV-1" source="kXoJSJUCj_QecCvAlT2l-92" target="kXoJSJUCj_QecCvAlT2l-94">
          <mxGeometry relative="1" as="geometry" />
        </mxCell>
        <mxCell id="kXoJSJUCj_QecCvAlT2l-92" value="clear old player position" style="rounded=0;whiteSpace=wrap;html=1;" vertex="1" parent="WIyWlLk6GJQsqaUBKTNV-1">
          <mxGeometry x="730" y="291.25" width="120" height="47.5" as="geometry" />
        </mxCell>
        <mxCell id="kXoJSJUCj_QecCvAlT2l-96" style="edgeStyle=orthogonalEdgeStyle;rounded=0;orthogonalLoop=1;jettySize=auto;html=1;entryX=0.5;entryY=0;entryDx=0;entryDy=0;" edge="1" parent="WIyWlLk6GJQsqaUBKTNV-1" source="kXoJSJUCj_QecCvAlT2l-94" target="kXoJSJUCj_QecCvAlT2l-25">
          <mxGeometry relative="1" as="geometry">
            <Array as="points">
              <mxPoint x="790" y="700" />
              <mxPoint x="235" y="700" />
            </Array>
          </mxGeometry>
        </mxCell>
        <mxCell id="kXoJSJUCj_QecCvAlT2l-94" value="draw player at new position" style="rounded=0;whiteSpace=wrap;html=1;" vertex="1" parent="WIyWlLk6GJQsqaUBKTNV-1">
          <mxGeometry x="730" y="373" width="120" height="47.5" as="geometry" />
        </mxCell>
        <mxCell id="kXoJSJUCj_QecCvAlT2l-100" value="" style="edgeStyle=orthogonalEdgeStyle;rounded=0;orthogonalLoop=1;jettySize=auto;html=1;" edge="1" parent="WIyWlLk6GJQsqaUBKTNV-1" source="kXoJSJUCj_QecCvAlT2l-97" target="kXoJSJUCj_QecCvAlT2l-99">
          <mxGeometry relative="1" as="geometry" />
        </mxCell>
        <mxCell id="kXoJSJUCj_QecCvAlT2l-97" value="set tile_pointer to 0" style="whiteSpace=wrap;html=1;strokeWidth=2;" vertex="1" parent="WIyWlLk6GJQsqaUBKTNV-1">
          <mxGeometry x="175" y="2100" width="120" height="40" as="geometry" />
        </mxCell>
        <mxCell id="kXoJSJUCj_QecCvAlT2l-102" value="no" style="edgeStyle=orthogonalEdgeStyle;rounded=0;orthogonalLoop=1;jettySize=auto;html=1;" edge="1" parent="WIyWlLk6GJQsqaUBKTNV-1" source="kXoJSJUCj_QecCvAlT2l-99" target="kXoJSJUCj_QecCvAlT2l-101">
          <mxGeometry relative="1" as="geometry" />
        </mxCell>
        <mxCell id="kXoJSJUCj_QecCvAlT2l-104" value="yes" style="edgeStyle=orthogonalEdgeStyle;rounded=0;orthogonalLoop=1;jettySize=auto;html=1;" edge="1" parent="WIyWlLk6GJQsqaUBKTNV-1" source="kXoJSJUCj_QecCvAlT2l-99" target="kXoJSJUCj_QecCvAlT2l-103">
          <mxGeometry relative="1" as="geometry" />
        </mxCell>
        <mxCell id="kXoJSJUCj_QecCvAlT2l-99" value="is the overlay &lt;br&gt;buffer at tile_pointer empty?" style="rhombus;whiteSpace=wrap;html=1;strokeWidth=2;" vertex="1" parent="WIyWlLk6GJQsqaUBKTNV-1">
          <mxGeometry x="160" y="2180" width="150" height="80" as="geometry" />
        </mxCell>
        <mxCell id="kXoJSJUCj_QecCvAlT2l-116" style="edgeStyle=orthogonalEdgeStyle;rounded=0;orthogonalLoop=1;jettySize=auto;html=1;entryX=1;entryY=0.75;entryDx=0;entryDy=0;" edge="1" parent="WIyWlLk6GJQsqaUBKTNV-1" source="kXoJSJUCj_QecCvAlT2l-101" target="kXoJSJUCj_QecCvAlT2l-112">
          <mxGeometry relative="1" as="geometry">
            <Array as="points">
              <mxPoint x="530" y="2220" />
              <mxPoint x="530" y="2585" />
            </Array>
          </mxGeometry>
        </mxCell>
        <mxCell id="kXoJSJUCj_QecCvAlT2l-101" value="output the overlay buffer character" style="whiteSpace=wrap;html=1;strokeWidth=2;" vertex="1" parent="WIyWlLk6GJQsqaUBKTNV-1">
          <mxGeometry x="370" y="2190" width="120" height="60" as="geometry" />
        </mxCell>
        <mxCell id="kXoJSJUCj_QecCvAlT2l-106" value="" style="edgeStyle=orthogonalEdgeStyle;rounded=0;orthogonalLoop=1;jettySize=auto;html=1;" edge="1" parent="WIyWlLk6GJQsqaUBKTNV-1" source="kXoJSJUCj_QecCvAlT2l-103" target="kXoJSJUCj_QecCvAlT2l-105">
          <mxGeometry relative="1" as="geometry" />
        </mxCell>
        <mxCell id="kXoJSJUCj_QecCvAlT2l-107" value="no" style="edgeLabel;html=1;align=center;verticalAlign=middle;resizable=0;points=[];" vertex="1" connectable="0" parent="kXoJSJUCj_QecCvAlT2l-106">
          <mxGeometry x="-0.2241" y="-1" relative="1" as="geometry">
            <mxPoint as="offset" />
          </mxGeometry>
        </mxCell>
        <mxCell id="kXoJSJUCj_QecCvAlT2l-109" value="yes" style="edgeStyle=orthogonalEdgeStyle;rounded=0;orthogonalLoop=1;jettySize=auto;html=1;" edge="1" parent="WIyWlLk6GJQsqaUBKTNV-1" source="kXoJSJUCj_QecCvAlT2l-103" target="kXoJSJUCj_QecCvAlT2l-108">
          <mxGeometry relative="1" as="geometry" />
        </mxCell>
        <mxCell id="kXoJSJUCj_QecCvAlT2l-103" value="is the primary&lt;br&gt;buffer at tile_pointer empty?" style="rhombus;whiteSpace=wrap;html=1;strokeWidth=2;" vertex="1" parent="WIyWlLk6GJQsqaUBKTNV-1">
          <mxGeometry x="160" y="2300" width="150" height="80" as="geometry" />
        </mxCell>
        <mxCell id="kXoJSJUCj_QecCvAlT2l-115" style="edgeStyle=orthogonalEdgeStyle;rounded=0;orthogonalLoop=1;jettySize=auto;html=1;entryX=1;entryY=0.5;entryDx=0;entryDy=0;" edge="1" parent="WIyWlLk6GJQsqaUBKTNV-1" source="kXoJSJUCj_QecCvAlT2l-105" target="kXoJSJUCj_QecCvAlT2l-112">
          <mxGeometry relative="1" as="geometry">
            <Array as="points">
              <mxPoint x="510" y="2340" />
              <mxPoint x="510" y="2570" />
            </Array>
          </mxGeometry>
        </mxCell>
        <mxCell id="kXoJSJUCj_QecCvAlT2l-105" value="output the primary buffer character" style="whiteSpace=wrap;html=1;strokeWidth=2;" vertex="1" parent="WIyWlLk6GJQsqaUBKTNV-1">
          <mxGeometry x="370" y="2310" width="120" height="60" as="geometry" />
        </mxCell>
        <mxCell id="kXoJSJUCj_QecCvAlT2l-111" value="no" style="edgeStyle=orthogonalEdgeStyle;rounded=0;orthogonalLoop=1;jettySize=auto;html=1;" edge="1" parent="WIyWlLk6GJQsqaUBKTNV-1" source="kXoJSJUCj_QecCvAlT2l-108" target="kXoJSJUCj_QecCvAlT2l-110">
          <mxGeometry relative="1" as="geometry" />
        </mxCell>
        <mxCell id="kXoJSJUCj_QecCvAlT2l-113" value="yes" style="edgeStyle=orthogonalEdgeStyle;rounded=0;orthogonalLoop=1;jettySize=auto;html=1;" edge="1" parent="WIyWlLk6GJQsqaUBKTNV-1" source="kXoJSJUCj_QecCvAlT2l-108" target="kXoJSJUCj_QecCvAlT2l-112">
          <mxGeometry relative="1" as="geometry" />
        </mxCell>
        <mxCell id="kXoJSJUCj_QecCvAlT2l-108" value="is the background&lt;br&gt;buffer at tile_pointer empty?" style="rhombus;whiteSpace=wrap;html=1;strokeWidth=2;" vertex="1" parent="WIyWlLk6GJQsqaUBKTNV-1">
          <mxGeometry x="160" y="2420" width="150" height="80" as="geometry" />
        </mxCell>
        <mxCell id="kXoJSJUCj_QecCvAlT2l-114" style="edgeStyle=orthogonalEdgeStyle;rounded=0;orthogonalLoop=1;jettySize=auto;html=1;entryX=1;entryY=0.25;entryDx=0;entryDy=0;" edge="1" parent="WIyWlLk6GJQsqaUBKTNV-1" source="kXoJSJUCj_QecCvAlT2l-110" target="kXoJSJUCj_QecCvAlT2l-112">
          <mxGeometry relative="1" as="geometry">
            <Array as="points">
              <mxPoint x="430" y="2555" />
            </Array>
          </mxGeometry>
        </mxCell>
        <mxCell id="kXoJSJUCj_QecCvAlT2l-110" value="output the background buffer character" style="whiteSpace=wrap;html=1;strokeWidth=2;" vertex="1" parent="WIyWlLk6GJQsqaUBKTNV-1">
          <mxGeometry x="370" y="2430" width="120" height="60" as="geometry" />
        </mxCell>
        <mxCell id="kXoJSJUCj_QecCvAlT2l-118" value="" style="edgeStyle=orthogonalEdgeStyle;rounded=0;orthogonalLoop=1;jettySize=auto;html=1;" edge="1" parent="WIyWlLk6GJQsqaUBKTNV-1" source="kXoJSJUCj_QecCvAlT2l-112" target="kXoJSJUCj_QecCvAlT2l-117">
          <mxGeometry relative="1" as="geometry" />
        </mxCell>
        <mxCell id="kXoJSJUCj_QecCvAlT2l-112" value="increment tile_pointer" style="whiteSpace=wrap;html=1;strokeWidth=2;" vertex="1" parent="WIyWlLk6GJQsqaUBKTNV-1">
          <mxGeometry x="175" y="2540" width="120" height="60" as="geometry" />
        </mxCell>
        <mxCell id="kXoJSJUCj_QecCvAlT2l-119" value="no" style="edgeStyle=orthogonalEdgeStyle;rounded=0;orthogonalLoop=1;jettySize=auto;html=1;entryX=0;entryY=0.5;entryDx=0;entryDy=0;" edge="1" parent="WIyWlLk6GJQsqaUBKTNV-1" source="kXoJSJUCj_QecCvAlT2l-117" target="kXoJSJUCj_QecCvAlT2l-99">
          <mxGeometry x="-0.9171" relative="1" as="geometry">
            <Array as="points">
              <mxPoint x="110" y="2670" />
              <mxPoint x="110" y="2220" />
            </Array>
            <mxPoint as="offset" />
          </mxGeometry>
        </mxCell>
        <mxCell id="kXoJSJUCj_QecCvAlT2l-128" value="yes" style="edgeStyle=orthogonalEdgeStyle;rounded=0;orthogonalLoop=1;jettySize=auto;html=1;entryX=0;entryY=0.5;entryDx=0;entryDy=0;entryPerimeter=0;exitX=0.5;exitY=1;exitDx=0;exitDy=0;" edge="1" parent="WIyWlLk6GJQsqaUBKTNV-1" source="kXoJSJUCj_QecCvAlT2l-117" target="kXoJSJUCj_QecCvAlT2l-34">
          <mxGeometry x="-0.9715" relative="1" as="geometry">
            <Array as="points">
              <mxPoint x="235" y="2730" />
              <mxPoint x="90" y="2730" />
              <mxPoint x="90" y="238" />
            </Array>
            <mxPoint as="offset" />
          </mxGeometry>
        </mxCell>
        <mxCell id="kXoJSJUCj_QecCvAlT2l-117" value="is tile_pointer&lt;br&gt;greater than or equal to number of tiles?" style="rhombus;whiteSpace=wrap;html=1;strokeWidth=2;" vertex="1" parent="WIyWlLk6GJQsqaUBKTNV-1">
          <mxGeometry x="152.5" y="2630" width="165" height="80" as="geometry" />
        </mxCell>
        <mxCell id="kXoJSJUCj_QecCvAlT2l-122" value="no" style="edgeStyle=orthogonalEdgeStyle;rounded=0;orthogonalLoop=1;jettySize=auto;html=1;" edge="1" parent="WIyWlLk6GJQsqaUBKTNV-1" source="kXoJSJUCj_QecCvAlT2l-120" target="kXoJSJUCj_QecCvAlT2l-92">
          <mxGeometry relative="1" as="geometry" />
        </mxCell>
        <mxCell id="kXoJSJUCj_QecCvAlT2l-124" value="" style="edgeStyle=orthogonalEdgeStyle;rounded=0;orthogonalLoop=1;jettySize=auto;html=1;" edge="1" parent="WIyWlLk6GJQsqaUBKTNV-1" source="kXoJSJUCj_QecCvAlT2l-120" target="kXoJSJUCj_QecCvAlT2l-123">
          <mxGeometry relative="1" as="geometry" />
        </mxCell>
        <mxCell id="kXoJSJUCj_QecCvAlT2l-120" value="did the player &lt;br&gt;reach a doorway?" style="rhombus;whiteSpace=wrap;html=1;" vertex="1" parent="WIyWlLk6GJQsqaUBKTNV-1">
          <mxGeometry x="475" y="275" width="125" height="80" as="geometry" />
        </mxCell>
        <mxCell id="kXoJSJUCj_QecCvAlT2l-126" value="" style="edgeStyle=orthogonalEdgeStyle;rounded=0;orthogonalLoop=1;jettySize=auto;html=1;" edge="1" parent="WIyWlLk6GJQsqaUBKTNV-1" source="kXoJSJUCj_QecCvAlT2l-123" target="kXoJSJUCj_QecCvAlT2l-125">
          <mxGeometry relative="1" as="geometry" />
        </mxCell>
        <mxCell id="kXoJSJUCj_QecCvAlT2l-123" value="modify room offset" style="whiteSpace=wrap;html=1;" vertex="1" parent="WIyWlLk6GJQsqaUBKTNV-1">
          <mxGeometry x="477.5" y="210" width="120" height="40" as="geometry" />
        </mxCell>
        <mxCell id="kXoJSJUCj_QecCvAlT2l-127" style="edgeStyle=orthogonalEdgeStyle;rounded=0;orthogonalLoop=1;jettySize=auto;html=1;entryX=1;entryY=0.5;entryDx=0;entryDy=0;" edge="1" parent="WIyWlLk6GJQsqaUBKTNV-1" source="kXoJSJUCj_QecCvAlT2l-125" target="kXoJSJUCj_QecCvAlT2l-1">
          <mxGeometry relative="1" as="geometry" />
        </mxCell>
        <mxCell id="kXoJSJUCj_QecCvAlT2l-125" value="reposition player" style="whiteSpace=wrap;html=1;" vertex="1" parent="WIyWlLk6GJQsqaUBKTNV-1">
          <mxGeometry x="477.5" y="140" width="120" height="40" as="geometry" />
        </mxCell>
        <mxCell id="kXoJSJUCj_QecCvAlT2l-135" value="success" style="edgeStyle=orthogonalEdgeStyle;rounded=0;orthogonalLoop=1;jettySize=auto;html=1;" edge="1" parent="WIyWlLk6GJQsqaUBKTNV-1" source="kXoJSJUCj_QecCvAlT2l-130" target="kXoJSJUCj_QecCvAlT2l-134">
          <mxGeometry relative="1" as="geometry" />
        </mxCell>
        <mxCell id="kXoJSJUCj_QecCvAlT2l-137" value="fail" style="edgeStyle=orthogonalEdgeStyle;rounded=0;orthogonalLoop=1;jettySize=auto;html=1;" edge="1" parent="WIyWlLk6GJQsqaUBKTNV-1" source="kXoJSJUCj_QecCvAlT2l-130" target="kXoJSJUCj_QecCvAlT2l-136">
          <mxGeometry relative="1" as="geometry" />
        </mxCell>
        <mxCell id="kXoJSJUCj_QecCvAlT2l-130" value="random chance&lt;br&gt;1 in 30?" style="rhombus;whiteSpace=wrap;html=1;" vertex="1" parent="WIyWlLk6GJQsqaUBKTNV-1">
          <mxGeometry x="477.5" y="390" width="102.5" height="80" as="geometry" />
        </mxCell>
        <mxCell id="kXoJSJUCj_QecCvAlT2l-140" style="edgeStyle=orthogonalEdgeStyle;rounded=0;orthogonalLoop=1;jettySize=auto;html=1;" edge="1" parent="WIyWlLk6GJQsqaUBKTNV-1" source="kXoJSJUCj_QecCvAlT2l-134">
          <mxGeometry relative="1" as="geometry">
            <mxPoint x="790" y="560" as="targetPoint" />
            <Array as="points">
              <mxPoint x="529" y="560" />
            </Array>
          </mxGeometry>
        </mxCell>
        <mxCell id="kXoJSJUCj_QecCvAlT2l-134" value="drop a bomb item at the goop tile" style="rounded=0;whiteSpace=wrap;html=1;" vertex="1" parent="WIyWlLk6GJQsqaUBKTNV-1">
          <mxGeometry x="468.75" y="510" width="120" height="40" as="geometry" />
        </mxCell>
        <mxCell id="kXoJSJUCj_QecCvAlT2l-139" value="success" style="edgeStyle=orthogonalEdgeStyle;rounded=0;orthogonalLoop=1;jettySize=auto;html=1;" edge="1" parent="WIyWlLk6GJQsqaUBKTNV-1" source="kXoJSJUCj_QecCvAlT2l-136" target="kXoJSJUCj_QecCvAlT2l-138">
          <mxGeometry relative="1" as="geometry" />
        </mxCell>
        <mxCell id="kXoJSJUCj_QecCvAlT2l-142" value="fail" style="edgeStyle=orthogonalEdgeStyle;rounded=0;orthogonalLoop=1;jettySize=auto;html=1;" edge="1" parent="WIyWlLk6GJQsqaUBKTNV-1" source="kXoJSJUCj_QecCvAlT2l-136">
          <mxGeometry relative="1" as="geometry">
            <mxPoint x="790" y="480" as="targetPoint" />
            <Array as="points">
              <mxPoint x="750" y="430" />
              <mxPoint x="750" y="480" />
            </Array>
          </mxGeometry>
        </mxCell>
        <mxCell id="kXoJSJUCj_QecCvAlT2l-136" value="random chance&lt;br&gt;1 in 60?" style="rhombus;whiteSpace=wrap;html=1;" vertex="1" parent="WIyWlLk6GJQsqaUBKTNV-1">
          <mxGeometry x="618.75" y="390" width="102.5" height="80" as="geometry" />
        </mxCell>
        <mxCell id="kXoJSJUCj_QecCvAlT2l-141" style="edgeStyle=orthogonalEdgeStyle;rounded=0;orthogonalLoop=1;jettySize=auto;html=1;" edge="1" parent="WIyWlLk6GJQsqaUBKTNV-1" source="kXoJSJUCj_QecCvAlT2l-138">
          <mxGeometry relative="1" as="geometry">
            <mxPoint x="790" y="530" as="targetPoint" />
          </mxGeometry>
        </mxCell>
        <mxCell id="kXoJSJUCj_QecCvAlT2l-138" value="drop a health pickup at the goop tile" style="rounded=0;whiteSpace=wrap;html=1;" vertex="1" parent="WIyWlLk6GJQsqaUBKTNV-1">
          <mxGeometry x="610" y="510" width="120" height="40" as="geometry" />
        </mxCell>
        <mxCell id="kXoJSJUCj_QecCvAlT2l-149" value="success" style="edgeStyle=orthogonalEdgeStyle;rounded=0;orthogonalLoop=1;jettySize=auto;html=1;" edge="1" parent="WIyWlLk6GJQsqaUBKTNV-1" source="kXoJSJUCj_QecCvAlT2l-144" target="kXoJSJUCj_QecCvAlT2l-145">
          <mxGeometry relative="1" as="geometry" />
        </mxCell>
        <mxCell id="kXoJSJUCj_QecCvAlT2l-151" value="fail" style="edgeStyle=orthogonalEdgeStyle;rounded=0;orthogonalLoop=1;jettySize=auto;html=1;" edge="1" parent="WIyWlLk6GJQsqaUBKTNV-1" source="kXoJSJUCj_QecCvAlT2l-144" target="kXoJSJUCj_QecCvAlT2l-146">
          <mxGeometry relative="1" as="geometry" />
        </mxCell>
        <mxCell id="kXoJSJUCj_QecCvAlT2l-144" value="random chance&lt;br&gt;1 in 30?" style="rhombus;whiteSpace=wrap;html=1;" vertex="1" parent="WIyWlLk6GJQsqaUBKTNV-1">
          <mxGeometry x="498.75" y="1800" width="102.5" height="80" as="geometry" />
        </mxCell>
        <mxCell id="kXoJSJUCj_QecCvAlT2l-153" style="edgeStyle=orthogonalEdgeStyle;rounded=0;orthogonalLoop=1;jettySize=auto;html=1;entryX=1;entryY=0.75;entryDx=0;entryDy=0;" edge="1" parent="WIyWlLk6GJQsqaUBKTNV-1" source="kXoJSJUCj_QecCvAlT2l-145" target="kXoJSJUCj_QecCvAlT2l-75">
          <mxGeometry relative="1" as="geometry">
            <mxPoint x="300" y="1930" as="targetPoint" />
            <Array as="points">
              <mxPoint x="549" y="1970" />
              <mxPoint x="330" y="1970" />
              <mxPoint x="330" y="1950" />
            </Array>
          </mxGeometry>
        </mxCell>
        <mxCell id="kXoJSJUCj_QecCvAlT2l-145" value="drop a bomb item at the center tile" style="rounded=0;whiteSpace=wrap;html=1;" vertex="1" parent="WIyWlLk6GJQsqaUBKTNV-1">
          <mxGeometry x="490" y="1920" width="120" height="40" as="geometry" />
        </mxCell>
        <mxCell id="kXoJSJUCj_QecCvAlT2l-150" value="success" style="edgeStyle=orthogonalEdgeStyle;rounded=0;orthogonalLoop=1;jettySize=auto;html=1;" edge="1" parent="WIyWlLk6GJQsqaUBKTNV-1" source="kXoJSJUCj_QecCvAlT2l-146" target="kXoJSJUCj_QecCvAlT2l-147">
          <mxGeometry relative="1" as="geometry" />
        </mxCell>
        <mxCell id="kXoJSJUCj_QecCvAlT2l-146" value="random chance&lt;br&gt;1 in 60?" style="rhombus;whiteSpace=wrap;html=1;" vertex="1" parent="WIyWlLk6GJQsqaUBKTNV-1">
          <mxGeometry x="348.75" y="1800" width="102.5" height="80" as="geometry" />
        </mxCell>
        <mxCell id="kXoJSJUCj_QecCvAlT2l-152" style="edgeStyle=orthogonalEdgeStyle;rounded=0;orthogonalLoop=1;jettySize=auto;html=1;entryX=1;entryY=0.5;entryDx=0;entryDy=0;" edge="1" parent="WIyWlLk6GJQsqaUBKTNV-1" source="kXoJSJUCj_QecCvAlT2l-147" target="kXoJSJUCj_QecCvAlT2l-75">
          <mxGeometry relative="1" as="geometry" />
        </mxCell>
        <mxCell id="kXoJSJUCj_QecCvAlT2l-147" value="drop a health pickup at the center tile" style="rounded=0;whiteSpace=wrap;html=1;" vertex="1" parent="WIyWlLk6GJQsqaUBKTNV-1">
          <mxGeometry x="340" y="1920" width="120" height="40" as="geometry" />
        </mxCell>
        <mxCell id="kXoJSJUCj_QecCvAlT2l-159" value="yes" style="edgeStyle=orthogonalEdgeStyle;rounded=0;orthogonalLoop=1;jettySize=auto;html=1;" edge="1" parent="WIyWlLk6GJQsqaUBKTNV-1" source="kXoJSJUCj_QecCvAlT2l-155" target="kXoJSJUCj_QecCvAlT2l-156">
          <mxGeometry relative="1" as="geometry" />
        </mxCell>
        <mxCell id="kXoJSJUCj_QecCvAlT2l-166" value="no" style="edgeStyle=orthogonalEdgeStyle;rounded=0;orthogonalLoop=1;jettySize=auto;html=1;" edge="1" parent="WIyWlLk6GJQsqaUBKTNV-1" source="kXoJSJUCj_QecCvAlT2l-155" target="kXoJSJUCj_QecCvAlT2l-165">
          <mxGeometry relative="1" as="geometry" />
        </mxCell>
        <mxCell id="kXoJSJUCj_QecCvAlT2l-155" value="is the player &lt;br&gt;intersecting with a bomb pickup tile?" style="rhombus;whiteSpace=wrap;html=1;" vertex="1" parent="WIyWlLk6GJQsqaUBKTNV-1">
          <mxGeometry x="160" y="850" width="150" height="80" as="geometry" />
        </mxCell>
        <mxCell id="kXoJSJUCj_QecCvAlT2l-156" value="increase the player&#39;s bomb count by 1" style="whiteSpace=wrap;html=1;" vertex="1" parent="WIyWlLk6GJQsqaUBKTNV-1">
          <mxGeometry x="360" y="860" width="120" height="60" as="geometry" />
        </mxCell>
        <mxCell id="kXoJSJUCj_QecCvAlT2l-161" value="no" style="edgeStyle=orthogonalEdgeStyle;rounded=0;orthogonalLoop=1;jettySize=auto;html=1;entryX=0;entryY=0.5;entryDx=0;entryDy=0;" edge="1" parent="WIyWlLk6GJQsqaUBKTNV-1" source="kXoJSJUCj_QecCvAlT2l-160" target="kXoJSJUCj_QecCvAlT2l-30">
          <mxGeometry relative="1" as="geometry" />
        </mxCell>
        <mxCell id="kXoJSJUCj_QecCvAlT2l-162" value="yes" style="edgeStyle=orthogonalEdgeStyle;rounded=0;orthogonalLoop=1;jettySize=auto;html=1;entryX=1;entryY=0;entryDx=0;entryDy=0;exitX=0.5;exitY=1;exitDx=0;exitDy=0;" edge="1" parent="WIyWlLk6GJQsqaUBKTNV-1" source="kXoJSJUCj_QecCvAlT2l-160" target="kXoJSJUCj_QecCvAlT2l-155">
          <mxGeometry relative="1" as="geometry">
            <Array as="points">
              <mxPoint x="422" y="830" />
              <mxPoint x="273" y="830" />
            </Array>
          </mxGeometry>
        </mxCell>
        <mxCell id="kXoJSJUCj_QecCvAlT2l-160" value="is the player &lt;br&gt;invincibility timer greater than zero?" style="rhombus;whiteSpace=wrap;html=1;" vertex="1" parent="WIyWlLk6GJQsqaUBKTNV-1">
          <mxGeometry x="354" y="720" width="136" height="80" as="geometry" />
        </mxCell>
        <mxCell id="kXoJSJUCj_QecCvAlT2l-174" value="yes" style="edgeStyle=orthogonalEdgeStyle;rounded=0;orthogonalLoop=1;jettySize=auto;html=1;" edge="1" parent="WIyWlLk6GJQsqaUBKTNV-1" source="kXoJSJUCj_QecCvAlT2l-164" target="kXoJSJUCj_QecCvAlT2l-173">
          <mxGeometry relative="1" as="geometry" />
        </mxCell>
        <mxCell id="kXoJSJUCj_QecCvAlT2l-176" value="no" style="edgeStyle=orthogonalEdgeStyle;rounded=0;orthogonalLoop=1;jettySize=auto;html=1;exitX=0.5;exitY=1;exitDx=0;exitDy=0;entryX=0.5;entryY=0;entryDx=0;entryDy=0;" edge="1" parent="WIyWlLk6GJQsqaUBKTNV-1" source="kXoJSJUCj_QecCvAlT2l-164" target="kXoJSJUCj_QecCvAlT2l-35">
          <mxGeometry relative="1" as="geometry" />
        </mxCell>
        <mxCell id="kXoJSJUCj_QecCvAlT2l-164" value="is the player&lt;br&gt;invincibility timer greater than zero?" style="rhombus;whiteSpace=wrap;html=1;" vertex="1" parent="WIyWlLk6GJQsqaUBKTNV-1">
          <mxGeometry x="166" y="1080" width="138" height="70" as="geometry" />
        </mxCell>
        <mxCell id="kXoJSJUCj_QecCvAlT2l-168" value="yes" style="edgeStyle=orthogonalEdgeStyle;rounded=0;orthogonalLoop=1;jettySize=auto;html=1;" edge="1" parent="WIyWlLk6GJQsqaUBKTNV-1" source="kXoJSJUCj_QecCvAlT2l-165" target="kXoJSJUCj_QecCvAlT2l-167">
          <mxGeometry relative="1" as="geometry" />
        </mxCell>
        <mxCell id="kXoJSJUCj_QecCvAlT2l-172" value="no" style="edgeStyle=orthogonalEdgeStyle;rounded=0;orthogonalLoop=1;jettySize=auto;html=1;" edge="1" parent="WIyWlLk6GJQsqaUBKTNV-1" source="kXoJSJUCj_QecCvAlT2l-165" target="kXoJSJUCj_QecCvAlT2l-164">
          <mxGeometry relative="1" as="geometry" />
        </mxCell>
        <mxCell id="kXoJSJUCj_QecCvAlT2l-165" value="is the player &lt;br&gt;intersecting with a health pickup tile?" style="rhombus;whiteSpace=wrap;html=1;" vertex="1" parent="WIyWlLk6GJQsqaUBKTNV-1">
          <mxGeometry x="160" y="960" width="150" height="80" as="geometry" />
        </mxCell>
        <mxCell id="kXoJSJUCj_QecCvAlT2l-170" value="" style="edgeStyle=orthogonalEdgeStyle;rounded=0;orthogonalLoop=1;jettySize=auto;html=1;" edge="1" parent="WIyWlLk6GJQsqaUBKTNV-1" source="kXoJSJUCj_QecCvAlT2l-167" target="kXoJSJUCj_QecCvAlT2l-169">
          <mxGeometry relative="1" as="geometry" />
        </mxCell>
        <mxCell id="kXoJSJUCj_QecCvAlT2l-167" value="increase the player&#39;s health by 3" style="whiteSpace=wrap;html=1;" vertex="1" parent="WIyWlLk6GJQsqaUBKTNV-1">
          <mxGeometry x="360" y="970" width="120" height="60" as="geometry" />
        </mxCell>
        <mxCell id="kXoJSJUCj_QecCvAlT2l-175" style="edgeStyle=orthogonalEdgeStyle;rounded=0;orthogonalLoop=1;jettySize=auto;html=1;entryX=1;entryY=0;entryDx=0;entryDy=0;" edge="1" parent="WIyWlLk6GJQsqaUBKTNV-1" source="kXoJSJUCj_QecCvAlT2l-169" target="kXoJSJUCj_QecCvAlT2l-164">
          <mxGeometry relative="1" as="geometry">
            <Array as="points">
              <mxPoint x="590" y="1040" />
              <mxPoint x="270" y="1040" />
            </Array>
          </mxGeometry>
        </mxCell>
        <mxCell id="kXoJSJUCj_QecCvAlT2l-169" value="set the player&#39;s invincibility timer to 3" style="whiteSpace=wrap;html=1;" vertex="1" parent="WIyWlLk6GJQsqaUBKTNV-1">
          <mxGeometry x="530" y="970" width="120" height="60" as="geometry" />
        </mxCell>
        <mxCell id="kXoJSJUCj_QecCvAlT2l-177" style="edgeStyle=orthogonalEdgeStyle;rounded=0;orthogonalLoop=1;jettySize=auto;html=1;entryX=1;entryY=0.5;entryDx=0;entryDy=0;" edge="1" parent="WIyWlLk6GJQsqaUBKTNV-1" source="kXoJSJUCj_QecCvAlT2l-173" target="kXoJSJUCj_QecCvAlT2l-35">
          <mxGeometry relative="1" as="geometry">
            <Array as="points">
              <mxPoint x="430" y="1205" />
            </Array>
          </mxGeometry>
        </mxCell>
        <mxCell id="kXoJSJUCj_QecCvAlT2l-173" value="reduce player invincibility timer by 1" style="whiteSpace=wrap;html=1;" vertex="1" parent="WIyWlLk6GJQsqaUBKTNV-1">
          <mxGeometry x="370" y="1085" width="120" height="60" as="geometry" />
        </mxCell>
      </root>
    </mxGraphModel>
  </diagram>
</mxfile>
